<svg id="close" xmlns="http://www.w3.org/2000/svg" width="35" height="35" viewBox="0 0 35 35">
  <metadata><?xpacket begin="﻿" id="W5M0MpCehiHzreSzNTczkc9d"?>
<x:xmpmeta xmlns:x="adobe:ns:meta/" x:xmptk="Adobe XMP Core 5.6-c142 79.160924, 2017/07/13-01:06:39        ">
   <rdf:RDF xmlns:rdf="http://www.w3.org/1999/02/22-rdf-syntax-ns#">
      <rdf:Description rdf:about=""/>
   </rdf:RDF>
</x:xmpmeta>
                                                                                                    
                                                                                                    
                                                                                                    
                                                                                                    
                                                                                                    
                                                                                                    
                                                                                                    
                                                                                                    
                                                                                                    
                                                                                                    
                                                                                                    
                                                                                                    
                                                                                                    
                                                                                                    
                                                                                                    
                                                                                                    
                                                                                                    
                                                                                                    
                                                                                                    
                                                                                                    
                           
<?xpacket end="w"?></metadata>
<defs>
    <style>
      .cls-1 {
        fill: #e8e8e8;
        fill-opacity: 0;
        stroke: #4d5975;
        stroke-linejoin: round;
        stroke-width: 3px;
      }

      .cls-2 {
        fill: #4d5975;
        fill-rule: evenodd;
      }
    </style>
  </defs>
  <circle class="cls-1" cx="17.297" cy="17.297" r="13.797"/>
  <path id="Forma_1" data-name="Forma 1" class="cls-2" d="M707.228,132.093l3.2-3.2a1.211,1.211,0,0,0,0-1.708l-0.427-.427a1.21,1.21,0,0,0-1.709,0l-3.2,3.2-3.2-3.2a1.212,1.212,0,0,0-1.709,0l-0.427.427a1.211,1.211,0,0,0,0,1.708l3.2,3.2-3.2,3.2a1.211,1.211,0,0,0,0,1.708l0.427,0.427a1.212,1.212,0,0,0,1.709,0l3.2-3.2,3.2,3.2a1.212,1.212,0,0,0,1.709,0l0.427-.427a1.211,1.211,0,0,0,0-1.708Z" transform="translate(-687.5 -114.5)"/>
</svg>
